# xmcd
#
# Track frame offsets: 
#        150
#        18567
#        31656
#        45231
#        59465
#        75480
#        85853
#        109380
#        130722
#        162786
#        190263
#        219655
#
# Disc length: 3542 seconds
#
# Revision: 1
# Processed by: cddbd v1.5.2PL0 Copyright (c) Steve Scherf et al.
# Submitted via: ExactAudioCopy v0.95b4
#
DISCID=920dd40c
DTITLE=Deep Purple - The Book Of Taliesyn
DYEAR=1968
DGENRE=Art Rock
TTITLE0=Listen, Learn, Read On
TTITLE1=The Bird Has Flown (Alternate A-side Vsn.)
TTITLE2=Emmaretta (Studio B-side)
TTITLE3=Emmaretta (BBC Top Gear Session 14.1.69)
TTITLE4=Lalena (BBC Radio Session 24.6.69)
TTITLE5=The Painter (BBC Radio Session 24.6.69)
TTITLE6=Wring That Neck (Instrumental)
TTITLE7=Kentucky Woman [Neil Diamond cover]
TTITLE8=a:Exposition (Instrumental) - b:We Can Work It Out [The Beatle
TTITLE8=s cover]
TTITLE9=Shield
TTITLE10=Anthem
TTITLE11=River Deep, Mountain High
EXTD=
EXTT0=
EXTT1=
EXTT2=
EXTT3=
EXTT4=
EXTT5=
EXTT6=
EXTT7=
EXTT8=
EXTT9=
EXTT10=
EXTT11=
PLAYORDER=
